<svg width="73" height="14" viewBox="0 0 73 14" fill="none" xmlns="http://www.w3.org/2000/svg">
<path d="M11.7233 1.998C10.5595 0.845445 9.01634 0.145179 7.37491 0.0247197C5.73347 -0.09574 4.10294 0.371619 2.78024 1.34169L4.57858 3.74634C5.31929 3.2031 6.23239 2.94138 7.15159 3.00884C8.0708 3.07629 8.93496 3.46844 9.58672 4.11387L11.7233 1.998Z" fill="#6E7C87"/>
<path d="M0.00857988 6.46701C0.0594986 5.45907 0.336311 4.47498 0.818941 3.58612C1.30157 2.69726 1.97792 1.92592 2.79893 1.32803L4.58905 3.73869C4.12928 4.07351 3.75053 4.50546 3.48025 5.00322C3.20998 5.50098 3.05497 6.05207 3.02645 6.61652L0.00857988 6.46701Z" fill="#DDE1E4"/>
<path d="M11.7233 11.6156C10.742 12.5874 9.4863 13.242 8.1218 13.4931C6.75729 13.7441 5.34799 13.5799 4.07962 13.0219C2.81126 12.464 1.74336 11.5386 1.01666 10.3677C0.289967 9.1968 -0.0614247 7.83532 0.00879928 6.4627L3.02657 6.6141C2.98725 7.38277 3.18403 8.1452 3.59098 8.80091C3.99793 9.45663 4.59595 9.97485 5.30624 10.2873C6.01652 10.5997 6.80573 10.6917 7.56985 10.5511C8.33398 10.4105 9.03716 10.044 9.58672 9.49974L11.7233 11.6156Z" fill="#C479F3"/>
<path d="M13.7437 0H16.6343V13.6152H13.7437V0Z" fill="white"/>
<path d="M23.6528 13.7619C22.6028 13.7619 21.6578 13.5479 20.8178 13.1197C19.9902 12.6793 19.3417 12.0738 18.8722 11.3031C18.4028 10.5325 18.1681 9.65783 18.1681 8.6792C18.1681 7.70057 18.4028 6.82593 18.8722 6.05526C19.3417 5.28459 19.9902 4.68518 20.8178 4.25703C21.6578 3.81665 22.6028 3.59646 23.6528 3.59646C24.7028 3.59646 25.6416 3.81665 26.4692 4.25703C27.2969 4.68518 27.9454 5.28459 28.4148 6.05526C28.8842 6.82593 29.1189 7.70057 29.1189 8.6792C29.1189 9.65783 28.8842 10.5325 28.4148 11.3031C27.9454 12.0738 27.2969 12.6793 26.4692 13.1197C25.6416 13.5479 24.7028 13.7619 23.6528 13.7619ZM23.6528 11.4132C24.394 11.4132 24.9992 11.1686 25.4687 10.6793C25.9504 10.1777 26.1913 9.51103 26.1913 8.6792C26.1913 7.84737 25.9504 7.18679 25.4687 6.69748C24.9992 6.19593 24.394 5.94516 23.6528 5.94516C22.9116 5.94516 22.3002 6.19593 21.8184 6.69748C21.3366 7.18679 21.0958 7.84737 21.0958 8.6792C21.0958 9.51103 21.3366 10.1777 21.8184 10.6793C22.3002 11.1686 22.9116 11.4132 23.6528 11.4132Z" fill="white"/>
<path d="M40.6862 3.74325V13.6152H37.9439V12.4408C37.5609 12.869 37.1039 13.1992 36.5727 13.4317C36.0415 13.6519 35.4671 13.7619 34.8495 13.7619C33.5401 13.7619 32.5025 13.3888 31.7366 12.6426C30.9707 11.8964 30.5878 10.7894 30.5878 9.32142V3.74325H33.4783V8.89939C33.4783 10.4897 34.1516 11.2848 35.498 11.2848C36.1898 11.2848 36.7456 11.0646 37.1656 10.6242C37.5856 10.1716 37.7956 9.50492 37.7956 8.62415V3.74325H40.6862Z" fill="white"/>
<path d="M53.1105 0V13.6152H50.3496V12.4775C49.6332 13.3338 48.5955 13.7619 47.2367 13.7619C46.2979 13.7619 45.4456 13.554 44.6797 13.1381C43.9262 12.7222 43.3332 12.1289 42.9009 11.3582C42.4685 10.5875 42.2523 9.69453 42.2523 8.6792C42.2523 7.66387 42.4685 6.77088 42.9009 6.00021C43.3332 5.22954 43.9262 4.63625 44.6797 4.22033C45.4456 3.80441 46.2979 3.59646 47.2367 3.59646C48.509 3.59646 49.5035 3.99402 50.2199 4.78916V0H53.1105ZM47.737 11.4132C48.4658 11.4132 49.0711 11.1686 49.5529 10.6793C50.0346 10.1777 50.2755 9.51103 50.2755 8.6792C50.2755 7.84737 50.0346 7.18679 49.5529 6.69748C49.0711 6.19593 48.4658 5.94516 47.737 5.94516C46.9958 5.94516 46.3844 6.19593 45.9026 6.69748C45.4208 7.18679 45.18 7.84737 45.18 8.6792C45.18 9.51103 45.4208 10.1777 45.9026 10.6793C46.3844 11.1686 46.9958 11.4132 47.737 11.4132Z" fill="white"/>
<path d="M65.143 8.7159C65.143 8.7526 65.1245 9.00949 65.0874 9.48657H57.546C57.6819 10.0982 58.0031 10.5814 58.5096 10.9362C59.016 11.2909 59.646 11.4683 60.3995 11.4683C60.9184 11.4683 61.3754 11.3949 61.7707 11.2481C62.1783 11.0891 62.5551 10.8444 62.901 10.5141L64.4389 12.1656C63.5001 13.2298 62.1289 13.7619 60.3254 13.7619C59.2013 13.7619 58.2069 13.5479 57.3422 13.1197C56.4775 12.6793 55.8105 12.0738 55.3411 11.3031C54.8717 10.5325 54.637 9.65783 54.637 8.6792C54.637 7.71281 54.8655 6.84427 55.3225 6.07361C55.7919 5.2907 56.4281 4.68518 57.231 4.25703C58.0463 3.81665 58.9543 3.59646 59.9548 3.59646C60.9307 3.59646 61.8139 3.80441 62.6045 4.22033C63.3951 4.63625 64.0127 5.23566 64.4574 6.01856C64.9145 6.78923 65.143 7.68834 65.143 8.7159ZM59.9734 5.76167C59.3187 5.76167 58.769 5.94516 58.3243 6.31215C57.8796 6.67913 57.6078 7.18068 57.509 7.81678H62.4192C62.3204 7.19291 62.0486 6.69748 61.6039 6.33049C61.1592 5.95128 60.6157 5.76167 59.9734 5.76167Z" fill="white"/>
<path d="M69.4207 5.04605C69.7665 4.56897 70.2298 4.2081 70.8104 3.96344C71.4033 3.71878 72.0827 3.59646 72.8486 3.59646V6.23875C72.5274 6.21428 72.3112 6.20205 72.2001 6.20205C71.3724 6.20205 70.7239 6.43447 70.2545 6.89932C69.7851 7.35194 69.5504 8.03698 69.5504 8.95444V13.6152H66.6598V3.74325H69.4207V5.04605Z" fill="white"/>
</svg>
