<svg width="510" height="108" viewBox="0 0 510 108" fill="none" xmlns="http://www.w3.org/2000/svg">
<path fill-rule="evenodd" clip-rule="evenodd" d="M153.173 55.6006V81.9688H157.292H161.41V55.6006V29.2324H157.292H153.173V55.6006ZM265.797 39.2355V49.2385L264.537 48.5766C259.268 45.8097 252.721 45.9178 247.575 48.8569C238.241 54.1888 235.764 66.3873 242.26 75.0295C244.625 78.175 248.197 80.5174 252.118 81.4943C254.223 82.0185 257.396 82.0237 259.444 81.5061C261.565 80.97 263.478 80.1877 264.736 79.3419L265.837 78.6021L265.717 80.3697L265.597 82.1373H269.815H274.034V55.6848V29.2324H269.915H265.797V39.2355ZM417.418 37.9095V46.5866H413.216H409.014V50.7145V54.8424H413.216H417.418V68.4056V81.9688H421.453H425.487V68.4056V54.8424H429.689H433.892V50.7145V46.5866H429.689H425.487V37.9095V29.2324H421.453H417.418V37.9095ZM122.278 29.7564C118.159 30.3102 113.706 32.159 110.222 34.7615C108.373 36.1422 105.55 39.117 104.276 41.0263C101.742 44.823 100.33 48.6921 99.88 53.0733C99.0854 60.8001 101.688 68.3141 107.104 73.9331C109.322 76.2348 111.155 77.6139 113.845 79.0068C116.225 80.2389 118.158 80.9339 120.731 81.4823C123.07 81.9809 128.207 82.0353 130.602 81.5866C136.978 80.3929 142.928 76.7046 146.785 71.5561C148.273 69.5702 150.166 66.0791 149.895 65.8213C149.749 65.6815 141.484 62.0873 141.31 62.0873C141.273 62.0873 141.131 62.3566 140.994 62.6856C140.618 63.5879 139.042 65.9332 138.142 66.9288C136.296 68.9736 132.997 70.9518 130.144 71.7249C128.921 72.0565 128.316 72.1118 125.942 72.1093C123.585 72.1066 122.956 72.0483 121.751 71.7209C116.228 70.2204 111.726 65.8296 110.026 60.284C109.606 58.9139 109.57 58.5725 109.562 55.7691C109.554 53.1505 109.603 52.5522 109.921 51.3884C111.551 45.4302 116.605 40.6521 122.58 39.4198C124.24 39.0776 127.351 39.0311 128.914 39.3253C133.274 40.1455 137.442 42.9001 139.76 46.4919C140.115 47.0421 140.429 47.5161 140.458 47.5451C140.517 47.6049 148.478 43.2731 148.679 43.0714C148.906 42.8438 146.547 39.4857 145.014 37.8552C141.265 33.8673 136.571 31.2308 131.116 30.0499C129.292 29.655 124.272 29.4882 122.278 29.7564ZM179.788 46.8361C176.303 47.4699 173.085 49.1663 170.551 51.7057C166.762 55.5034 164.908 60.6635 165.435 65.9458C165.676 68.3643 166.117 69.898 167.208 72.1123C169.598 76.9652 173.862 80.3446 179.144 81.572C181.156 82.0397 185.176 82.0021 187.192 81.4968C193.92 79.8096 198.965 74.5004 200.432 67.5632C200.731 66.1507 200.693 62.1251 200.366 60.6474C199.631 57.3181 198.009 54.3289 195.617 51.8937C192.86 49.0867 189.865 47.4876 186.14 46.8339C184.439 46.5353 181.436 46.5363 179.788 46.8361ZM204.653 57.833C204.714 68.7223 204.727 69.1235 205.08 70.4655C206.587 76.2032 211.072 80.4622 216.88 81.6711C218.911 82.0938 221.859 82.006 223.773 81.4657C226.703 80.6386 229.841 78.6048 231.629 76.3742C232.786 74.9318 233.894 72.8122 234.476 70.9329L234.945 69.4165L234.998 58.0015L235.051 46.5866H230.931H226.81L226.763 57.5803L226.715 68.5741L226.175 69.6793C225.51 71.0421 223.995 72.5416 222.67 73.1498C220.838 73.9902 218.053 73.8433 216.377 72.8178C215.475 72.2661 214.432 71.2443 213.88 70.3723C212.841 68.7333 212.847 68.8036 212.847 57.1706V46.5866H208.719H204.591L204.653 57.833ZM280.253 64.3619V82.1373H284.281H288.31L288.358 71.312L288.406 60.4867L289.013 59.2121C289.812 57.5358 291.109 56.1967 292.639 55.4705C293.714 54.9602 293.899 54.9266 295.634 54.9266C297.338 54.9266 297.562 54.9654 298.491 55.4213C300.444 56.3792 302.047 58.4615 302.439 60.5517C302.543 61.1025 302.61 65.4923 302.61 71.714V81.9688H306.723H310.837L310.884 70.975L310.93 59.9812L311.467 58.8455C312.162 57.3756 313.374 56.161 314.84 55.4646C315.901 54.961 316.092 54.9266 317.822 54.9266C319.484 54.9266 319.77 54.9732 320.649 55.3859C322.486 56.2486 324.176 58.325 324.624 60.2692C324.724 60.7039 324.792 65.1747 324.794 71.4805L324.798 81.9688H328.925H333.052L332.992 70.7223C332.933 59.7481 332.923 59.4411 332.559 58.0437C331.766 55.0021 329.776 51.8907 327.393 49.9696C325.934 48.7931 323.276 47.4403 321.52 46.9808C319.713 46.508 315.589 46.548 313.823 47.0553C311.366 47.7616 309.401 48.8495 307.522 50.544L306.634 51.3439L305.757 50.5158C303.011 47.9254 299.514 46.5913 295.459 46.5879C292.978 46.5857 290.712 47.3707 289.105 48.7887L288.322 49.4795V48.033V46.5866H284.287H280.253V64.3619ZM351.413 46.8361C344.448 48.1029 338.867 53.5611 337.29 60.6495C336.963 62.1187 336.92 66.144 337.216 67.5632C338.643 74.4047 343.526 79.6334 350.161 81.4251C351.606 81.8154 352.081 81.8614 354.635 81.8579C357.187 81.8544 357.673 81.806 359.174 81.4064C360.098 81.1604 361.592 80.5911 362.493 80.1415L364.132 79.3242V80.7307V82.1373H368.167H372.201V64.3619V46.5866H368.167H364.132V47.9427V49.2989L363.054 48.6943C361.571 47.8628 359.526 47.1405 357.802 46.8393C356.067 46.536 353.072 46.5345 351.413 46.8361ZM388.002 46.8287C385.139 47.4374 383.022 48.5386 381.186 50.3736C379.048 52.5109 378.252 54.416 378.252 57.4007C378.252 60.3388 379.096 62.4336 381.07 64.4018C383.137 66.4626 385.872 67.5436 390.958 68.3106C394.377 68.8261 395.907 69.5058 396.253 70.6613C396.575 71.7403 395.936 72.5814 394.192 73.3749C393.678 73.6085 393.095 73.706 392.204 73.7072C389.474 73.7109 387.46 72.6892 386.216 70.6685C385.878 70.1189 385.549 69.6692 385.486 69.6692C385.325 69.6692 378.273 72.6252 378.157 72.7413C378.002 72.8968 379.071 74.8932 379.949 76.0872C381.915 78.7594 384.783 80.6226 388.275 81.4955C390.375 82.0207 394.193 82.0154 396.154 81.4847C400.699 80.2553 403.922 77.3465 404.897 73.5945C405.224 72.3354 405.216 69.9016 404.881 68.5983C404.2 65.9531 402.295 63.5722 399.853 62.3158C397.688 61.2021 396.344 60.8223 392.468 60.2298C389.232 59.7349 387.73 59.1506 387.237 58.1955C386.676 57.1084 387.19 56.118 388.709 55.357C389.602 54.9096 389.914 54.8427 391.097 54.8444C393.926 54.8486 396.007 55.9349 397.205 58.0339C397.446 58.4563 397.66 58.8263 397.681 58.8561C397.713 58.9009 405.155 55.8892 405.268 55.7859C405.391 55.6734 403.957 53.2054 403.16 52.1577C401.395 49.8375 398.376 47.8826 395.314 47.0769C393.574 46.6192 389.619 46.485 388.002 46.8287ZM490.212 46.7783C487.711 47.1939 484.696 48.6942 482.714 50.5098C480.244 52.7725 478.458 56.0946 477.94 59.3915C477.835 60.055 477.767 64.7198 477.766 71.2277L477.765 81.9688H481.878H485.992L486.039 70.9713L486.085 59.9737L486.628 58.8696C487.674 56.7389 489.939 55.0795 492.063 54.8864L493.061 54.7956V50.6911V46.5866L492.095 46.6063C491.563 46.6171 490.716 46.6946 490.212 46.7783ZM452.016 46.9955C447.911 47.7255 443.694 50.2104 441.198 53.3705C439.465 55.5637 438.155 58.3737 437.566 61.1607C437.252 62.644 437.306 66.5947 437.663 68.2371C438.386 71.5666 439.896 74.3191 442.381 76.8365C444.158 78.6378 445.285 79.4635 447.339 80.4709C450.026 81.7885 452.27 82.22 455.776 82.0936C458.639 81.9903 460.16 81.6357 462.421 80.5454C464.525 79.5306 465.828 78.6129 467.448 77.0058C468.629 75.8343 470.705 73.0201 470.705 72.59C470.705 72.5106 468.849 71.9693 466.582 71.387L462.459 70.3285L462.023 70.8468C461.391 71.6004 459.612 72.8252 458.485 73.2826C455.776 74.3828 452.681 74.1353 450.086 72.6107C448.508 71.6838 446.574 69.3045 446.087 67.6905L445.973 67.3124L459.221 67.2693L472.47 67.2262L472.598 65.8783C472.756 64.212 472.499 61.3955 472.036 59.7204C470.386 53.7471 465.224 48.7304 459.194 47.2411C457.424 46.8037 453.793 46.6796 452.016 46.9955ZM186.197 55.3169C189.829 56.6484 192.495 60.3699 192.505 64.1203C192.512 66.7475 191.591 68.9365 189.667 70.8679C187.689 72.8536 185.678 73.7129 183.01 73.7129C180.34 73.7129 178.329 72.853 176.356 70.8679C174.517 69.018 173.519 66.6986 173.519 64.2777C173.519 62.3249 174.317 60.0475 175.535 58.5269C176.928 56.7867 178.592 55.6385 180.521 55.0867C181.779 54.7268 184.937 54.8549 186.197 55.3169ZM259.487 55.3169C263.136 56.655 265.791 60.4288 265.791 64.2777C265.791 66.6191 264.695 69.1265 262.874 70.9516C260.981 72.8484 258.923 73.7129 256.3 73.7129C253.623 73.7129 251.61 72.8508 249.656 70.8679C248.961 70.1622 248.184 69.1926 247.93 68.7131C247.335 67.5911 246.801 65.4951 246.805 64.2928C246.818 60.0579 249.715 56.2735 253.862 55.0742C255.064 54.7267 258.252 54.8641 259.487 55.3169ZM356.989 55.071C360.336 55.9645 362.997 58.6991 363.816 62.0873C364.162 63.522 364.08 65.8395 363.636 67.1419C362.585 70.2241 360.003 72.6659 356.954 73.462C355.723 73.7835 353.547 73.7835 352.316 73.462C350.167 72.9008 347.853 71.21 346.638 69.3131C343.23 63.9901 346.042 56.7938 352.198 55.0828C353.215 54.8001 355.949 54.7934 356.989 55.071ZM457.18 55.2673C458.921 55.7128 460.265 56.4868 461.543 57.78L462.72 58.9703L458.8 59.0157C456.644 59.0404 453.165 59.0404 451.068 59.0157L447.255 58.9703L448.432 57.7887C450.322 55.8909 452.284 55.054 454.91 55.0249C455.607 55.0171 456.629 55.1263 457.18 55.2673Z" fill="black" fill-opacity="0.4"/>
<path fill-rule="evenodd" clip-rule="evenodd" d="M32.9854 25.4975L17.2685 34.7319L17.2251 44.4312L17.1818 54.1306L33.279 63.3232C42.1326 68.3794 49.5083 72.5668 49.6696 72.6288C49.9448 72.7347 49.963 72.4143 49.963 67.4439V62.1462L38.3644 55.5297L26.7659 48.9132L26.7675 44.6768L26.7692 40.4404L42.9047 31.0978C53.4113 25.0142 59.0401 21.6635 59.0401 21.4927C59.0401 21.3171 57.398 20.4078 54.0806 18.7464C51.3528 17.3803 49.0268 16.2627 48.9117 16.2627C48.7966 16.2629 41.6297 20.4186 32.9854 25.4975ZM50.3832 34.6187C34.5552 43.7897 34.4137 43.8763 34.3649 44.4305L34.3157 44.9895L38.4678 47.1798C40.7515 48.3845 42.7535 49.3936 42.9169 49.4224C43.0805 49.451 48.4871 46.5792 54.932 43.0403C61.3769 39.5014 66.7738 36.5734 66.9249 36.5338C67.0762 36.4942 68.6923 37.1599 70.5163 38.0135L73.8324 39.5651V58.424C73.8324 68.7964 73.8953 77.2576 73.9721 77.2266C74.0491 77.1958 76.0915 76.0812 78.5107 74.7497L82.9096 72.329L82.9082 53.0991L82.9069 33.8694L74.8671 29.6151C70.4452 27.2752 66.7203 25.362 66.5897 25.3633C66.4591 25.3647 59.1662 29.5295 50.3832 34.6187ZM61.7735 46.39L57.5309 48.8647L57.5245 62.5121L57.5182 76.1596L54.1339 78.4104L50.7496 80.6612L50.2302 80.4125C49.9446 80.2757 42.4237 76.2111 33.5172 71.3801C24.6109 66.5491 17.2914 62.5964 17.2517 62.5964C17.2122 62.5964 17.1997 64.9992 17.2241 67.9359L17.2685 73.2752L32.9854 82.5097C41.6297 87.5887 48.8157 91.7407 48.9544 91.7365C49.0931 91.7325 53.1021 89.6203 57.8634 87.0428L66.5203 82.3567L66.5075 74.7091C66.4889 63.4462 66.244 43.8927 66.1219 43.9048C66.0636 43.9107 64.1068 45.0289 61.7735 46.39Z" fill="url(#paint0_linear_303_1986)"/>
<defs>
<linearGradient id="paint0_linear_303_1986" x1="99.9723" y1="23.0676" x2="41.6737" y2="80.7248" gradientUnits="userSpaceOnUse">
<stop stop-color="#2191D1"/>
<stop offset="1" stop-color="#0558AF"/>
</linearGradient>
</defs>
</svg>
