<?xml version="1.0" encoding="UTF-8"?> <svg xmlns="http://www.w3.org/2000/svg" width="313" height="59" viewBox="0 0 313 59" fill="none"> <path d="M50.2601 8.56577C45.2705 3.62458 38.6547 0.622411 31.6176 0.105978C24.5804 -0.410455 17.59 1.5932 11.9194 5.75207L19.6292 16.0613C22.8048 13.7323 26.7194 12.6102 30.6602 12.8994C34.601 13.1886 38.3058 14.8699 41.1 17.6369L50.2601 8.56577Z" fill="#6E7C87"></path> <path d="M0.0367835 27.7253C0.255081 23.404 1.44183 19.1851 3.51095 15.3744C5.58007 11.5637 8.4797 8.25676 11.9995 5.69352L19.6741 16.0285C17.703 17.4639 16.0792 19.3157 14.9205 21.4497C13.7618 23.5837 13.0972 25.9463 12.9749 28.3662L0.0367835 27.7253Z" fill="#DDE1E4"></path> <path d="M50.2601 49.7983C46.0528 53.9647 40.6695 56.771 34.8196 57.8473C28.9697 58.9236 22.9278 58.2194 17.4901 55.8275C12.0524 53.4356 7.47411 49.4682 4.35862 44.4483C1.24314 39.4284 -0.263339 33.5915 0.0377241 27.7068L12.9755 28.3559C12.8069 31.6513 13.6505 34.92 15.3952 37.7311C17.1399 40.5423 19.7037 42.764 22.7488 44.1035C25.7939 45.4429 29.1774 45.8373 32.4533 45.2346C35.7293 44.6318 38.7439 43.0603 41.1 40.7271L50.2601 49.7983Z" fill="#C479F3"></path> <path d="M58.9218 0H71.3141V58.3707H58.9218V0Z" fill="black"></path> <path d="M101.404 59C96.9023 59 92.851 58.0822 89.2498 56.2467C85.7015 54.3587 82.9212 51.7627 80.9088 48.4587C78.8963 45.1547 77.8901 41.4049 77.8901 37.2093C77.8901 33.0138 78.8963 29.264 80.9088 25.96C82.9212 22.656 85.7015 20.0862 89.2498 18.2507C92.851 16.3627 96.9023 15.4187 101.404 15.4187C105.905 15.4187 109.93 16.3627 113.478 18.2507C117.027 20.0862 119.807 22.656 121.819 25.96C123.832 29.264 124.838 33.0138 124.838 37.2093C124.838 41.4049 123.832 45.1547 121.819 48.4587C119.807 51.7627 117.027 54.3587 113.478 56.2467C109.93 58.0822 105.905 59 101.404 59ZM101.404 48.9307C104.581 48.9307 107.176 47.8818 109.189 45.784C111.254 43.6338 112.287 40.7756 112.287 37.2093C112.287 33.6431 111.254 30.8111 109.189 28.7133C107.176 26.5631 104.581 25.488 101.404 25.488C98.2263 25.488 95.6048 26.5631 93.5394 28.7133C91.474 30.8111 90.4413 33.6431 90.4413 37.2093C90.4413 40.7756 91.474 43.6338 93.5394 45.784C95.6048 47.8818 98.2263 48.9307 101.404 48.9307Z" fill="black"></path> <path d="M174.429 16.048V58.3707H162.672V53.336C161.031 55.1716 159.071 56.5876 156.794 57.584C154.517 58.528 152.054 59 149.406 59C143.792 59 139.344 57.4004 136.061 54.2013C132.777 51.0022 131.135 46.256 131.135 39.9627V16.048H143.528V38.1533C143.528 44.9711 146.414 48.38 152.186 48.38C155.152 48.38 157.535 47.436 159.336 45.548C161.136 43.6075 162.037 40.7493 162.037 36.9733V16.048H174.429Z" fill="black"></path> <path d="M227.694 0V58.3707H215.858V53.4933C212.786 57.1644 208.338 59 202.512 59C198.487 59 194.833 58.1084 191.55 56.3253C188.319 54.5422 185.777 51.9987 183.924 48.6947C182.07 45.3907 181.144 41.5622 181.144 37.2093C181.144 32.8564 182.07 29.028 183.924 25.724C185.777 22.42 188.319 19.8764 191.55 18.0933C194.833 16.3102 198.487 15.4187 202.512 15.4187C207.967 15.4187 212.23 17.1231 215.302 20.532V0H227.694ZM204.657 48.9307C207.782 48.9307 210.377 47.8818 212.442 45.784C214.508 43.6338 215.54 40.7756 215.54 37.2093C215.54 33.6431 214.508 30.8111 212.442 28.7133C210.377 26.5631 207.782 25.488 204.657 25.488C201.48 25.488 198.858 26.5631 196.793 28.7133C194.727 30.8111 193.695 33.6431 193.695 37.2093C193.695 40.7756 194.727 43.6338 196.793 45.784C198.858 47.8818 201.48 48.9307 204.657 48.9307Z" fill="black"></path> <path d="M279.28 37.3667C279.28 37.524 279.201 38.6253 279.042 40.6707H246.71C247.293 43.2929 248.67 45.3644 250.841 46.8853C253.012 48.4062 255.713 49.1667 258.944 49.1667C261.168 49.1667 263.128 48.852 264.822 48.2227C266.57 47.5409 268.185 46.492 269.668 45.076L276.261 52.156C272.236 56.7187 266.358 59 258.626 59C253.807 59 249.544 58.0822 245.837 56.2467C242.129 54.3587 239.27 51.7627 237.257 48.4587C235.245 45.1547 234.239 41.4049 234.239 37.2093C234.239 33.0662 235.218 29.3427 237.178 26.0387C239.19 22.6822 241.918 20.0862 245.36 18.2507C248.855 16.3627 252.748 15.4187 257.037 15.4187C261.221 15.4187 265.008 16.3102 268.397 18.0933C271.786 19.8764 274.434 22.4462 276.341 25.8027C278.3 29.1067 279.28 32.9613 279.28 37.3667ZM257.117 24.7013C254.31 24.7013 251.953 25.488 250.047 27.0613C248.14 28.6347 246.975 30.7849 246.551 33.512H267.603C267.179 30.8373 266.014 28.7133 264.107 27.14C262.201 25.5142 259.871 24.7013 257.117 24.7013Z" fill="black"></path> <path d="M297.619 21.6333C299.102 19.588 301.088 18.0409 303.577 16.992C306.119 15.9431 309.032 15.4187 312.315 15.4187V26.7467C310.938 26.6418 310.011 26.5893 309.535 26.5893C305.987 26.5893 303.206 27.5858 301.194 29.5787C299.181 31.5191 298.175 34.456 298.175 38.3893V58.3707H285.783V16.048H297.619V21.6333Z" fill="black"></path> </svg> 